<?xml version="1.0" encoding="iso-8859-1"?>
<!-- Generator: Adobe Illustrator 19.0.0, SVG Export Plug-In . SVG Version: 6.00 Build 0)  -->
<svg version="1.1" id="Layer_1" xmlns="http://www.w3.org/2000/svg" xmlns:xlink="http://www.w3.org/1999/xlink" x="0px" y="0px"
	 viewBox="0 0 512 512" style="enable-background:new 0 0 512 512;" xml:space="preserve">
<polygon style="fill:#42C8C6;" points="310.468,8.17 310.468,62.638 245.106,84.426 277.787,8.17 "/>
<polygon style="fill:#81E3E2;" points="43.574,8.17 43.574,62.638 277.787,95.319 277.787,8.17 "/>
<polygon style="fill:#FEDC3D;" points="310.468,62.638 310.468,449.362 277.787,425.352 245.106,243.995 277.787,62.638 "/>
<polygon style="fill:#FFE777;" points="277.787,62.638 277.787,425.352 177.021,351.319 144.34,206.979 177.021,62.638 "/>
<polygon style="fill:#FFF1B1;" points="177.021,62.638 177.021,351.319 43.574,449.362 43.574,62.638 "/>
<path style="fill:#FE5F1A;" d="M359.489,285.957V503.83c60.165,0,108.936-48.771,108.936-108.936
	C468.426,334.727,419.655,285.957,359.489,285.957z"/>
<path style="fill:#FE834D;" d="M359.489,285.957c42.115,0,76.255,48.771,76.255,108.936S401.604,503.83,359.489,503.83
	c-60.165,0-108.936-48.771-108.936-108.936S299.324,285.957,359.489,285.957z"/>
<path style="fill:#FFFFFF;" d="M409.559,421.853l-26.961-26.96l26.961-26.961c6.382-6.382,6.382-16.727,0-23.109
	c-6.381-6.382-16.727-6.382-23.109,0l-26.961,26.96l-26.961-26.961c-6.381-6.382-16.727-6.382-23.109,0
	c-6.381,6.381-6.381,16.727,0,23.109l26.961,26.961l-26.961,26.961c-6.381,6.381-6.381,16.727,0,23.109
	c6.381,6.381,16.727,6.381,23.109,0l26.961-26.96l26.961,26.961c6.382,6.381,16.727,6.381,23.109,0
	C415.94,438.581,415.94,428.235,409.559,421.853z"/>
<path d="M223.322,375.197l-41.464-30.463c-2.878-2.114-6.797-2.114-9.675,0L51.745,433.221V70.809h250.553v191.219
	c0,4.512,3.658,8.17,8.17,8.17s8.17-3.658,8.17-8.17V8.17c0-4.512-3.658-8.17-8.17-8.17H43.574c-4.512,0-8.17,3.658-8.17,8.17
	v441.191c0,3.081,1.732,5.899,4.481,7.289c1.166,0.59,2.429,0.881,3.689,0.881c1.709,0,3.409-0.536,4.838-1.586l128.61-94.488
	l36.627,26.908c3.636,2.672,8.751,1.89,11.421-1.747C227.741,382.983,226.959,377.869,223.322,375.197z M302.298,16.34v38.128
	H51.745V16.34H302.298z"/>
<path d="M168.851,95.319v223.319c0,4.512,3.658,8.17,8.17,8.17s8.17-3.658,8.17-8.17V95.319c0-4.512-3.658-8.17-8.17-8.17
	S168.851,90.807,168.851,95.319z"/>
<path d="M359.489,277.787c-64.573,0-117.106,52.533-117.106,117.106S294.916,512,359.489,512s117.106-52.533,117.106-117.106
	S424.062,277.787,359.489,277.787z M359.489,495.66c-55.563,0-100.766-45.203-100.766-100.766s45.203-100.766,100.766-100.766
	s100.766,45.203,100.766,100.766S415.052,495.66,359.489,495.66z"/>
<path d="M415.335,339.046c-4.63-4.63-10.785-7.179-17.332-7.179c-6.547,0-12.702,2.549-17.332,7.179l-21.183,21.184l-21.183-21.183
	c-4.63-4.63-10.785-7.179-17.332-7.179c-6.547,0-12.703,2.549-17.332,7.179c-9.557,9.557-9.557,25.107,0,34.664l21.183,21.183
	l-21.183,21.183c-9.557,9.557-9.557,25.107,0,34.663c4.63,4.63,10.785,7.179,17.332,7.179c6.547,0,12.702-2.549,17.332-7.179
	l21.183-21.184l21.183,21.183c4.63,4.63,10.785,7.179,17.332,7.179c6.547,0,12.703-2.549,17.332-7.179
	c9.557-9.557,9.557-25.107,0-34.663l-21.183-21.182l21.183-21.183C424.892,364.153,424.892,348.603,415.335,339.046z
	 M403.781,362.156l-26.961,26.961c-3.191,3.191-3.191,8.364,0,11.554l26.961,26.961c3.185,3.185,3.185,8.37,0,11.555
	c-1.544,1.544-3.595,2.393-5.778,2.393c-2.182,0-4.234-0.85-5.777-2.393l-26.961-26.961c-1.595-1.595-3.686-2.393-5.777-2.393
	s-4.182,0.797-5.777,2.393l-26.961,26.961c-1.544,1.544-3.595,2.393-5.777,2.393c-2.182,0-4.234-0.85-5.778-2.393
	c-3.185-3.185-3.185-8.37,0-11.555l26.961-26.961c3.191-3.191,3.191-8.364,0-11.554l-26.961-26.961
	c-3.185-3.185-3.185-8.37,0-11.555c1.544-1.544,3.595-2.393,5.778-2.393c2.182,0,4.234,0.85,5.777,2.393l26.961,26.961
	c3.191,3.191,8.364,3.191,11.554,0l26.961-26.961c1.544-1.544,3.595-2.393,5.777-2.393c2.182,0,4.234,0.85,5.778,2.393
	C406.967,353.787,406.967,358.97,403.781,362.156z"/>
<g>
</g>
<g>
</g>
<g>
</g>
<g>
</g>
<g>
</g>
<g>
</g>
<g>
</g>
<g>
</g>
<g>
</g>
<g>
</g>
<g>
</g>
<g>
</g>
<g>
</g>
<g>
</g>
<g>
</g>
</svg>
